<?xml version="1.0" encoding="UTF-8"?>
<!DOCTYPE svg PUBLIC "-//W3C//DTD SVG 1.1//EN" "http://www.w3.org/Graphics/SVG/1.1/DTD/svg11.dtd">
<!-- Creator: CorelDRAW 2021.5 -->
<svg xmlns="http://www.w3.org/2000/svg" xml:space="preserve" width="139.701mm" height="38.0998mm" version="1.1" style="shape-rendering:geometricPrecision; text-rendering:geometricPrecision; image-rendering:optimizeQuality; fill-rule:evenodd; clip-rule:evenodd"
viewBox="0 0 13970.08 3809.98"
 xmlns:xlink="http://www.w3.org/1999/xlink"
 xmlns:xodm="http://www.corel.com/coreldraw/odm/2003">
 <defs>
  <style type="text/css">
   <![CDATA[
    .fil0 {fill:none}
    .fil1 {fill:#034EA1;fill-rule:nonzero}
    .fil2 {fill:#EC1C24;fill-rule:nonzero}
   ]]>
  </style>
 </defs>
 <g id="Layer_x0020_1">
  <metadata id="CorelCorpID_0Corel-Layer"/>
  <g id="_1320094604848">
   <rect class="fil0" x="0.01" y="-0.01" width="13970.05" height="3809.99"/>
   <g>
    <g>
     <path class="fil1" d="M207.2 846.79l228.2 0 414.37 0 0 -414.37 0 -225.2c0,-114.1 -93.08,-207.18 -207.18,-207.18l0 0c-114.1,0 -207.18,93.08 -207.18,207.18l0 225.21 -228.21 -0.01c-114.1,0 -207.19,93.08 -207.19,207.18l0 0c0,114.11 93.09,207.19 207.19,207.19z"/>
     <g>
      <polygon class="fil1" points="1426.29,1123.04 2002.8,2044.86 2005.8,2044.86 2005.8,1123.04 2291.06,1123.04 2291.06,2498.27 1984.78,2498.27 1411.27,1576.45 1408.26,1576.45 1408.26,2498.27 1123.01,2498.27 1123.01,1123.04 "/>
      <path class="fil1" d="M2432.18 1807.65c3.01,-63.05 21.02,-117.1 48.04,-159.14 27.02,-42.04 63.05,-75.07 108.09,-102.09 45.05,-27.02 93.09,-45.05 147.14,-54.06 54.05,-12 111.1,-15.01 165.15,-15.01 51.04,0 102.09,3.01 153.14,9.01 51.04,6 99.08,21.02 141.12,42.04 42.03,21.01 78.06,48.03 105.09,84.07 27.02,36.03 42.03,84.07 42.03,144.13l0 519.46c0,45.04 3.01,87.08 9.01,129.11 6.01,42.04 15.02,72.07 27.02,93.09l-279.23 0.01c-6,-15.02 -9.01,-30.03 -12.01,-48.04 -2.99,-18.01 -6,-33.03 -6,-48.04 -45.04,45.04 -96.09,78.07 -153.14,93.08 -60.06,18.02 -120.1,27.02 -183.17,27.02 -48.04,0 -93.08,-6 -132.12,-18.02 -42.04,-12.01 -78.07,-30.03 -108.1,-54.05 -30.03,-24.03 -54.05,-54.06 -72.06,-93.09 -18.02,-36.03 -27.02,-81.07 -27.02,-132.12 0,-57.05 9.01,-102.09 30.03,-141.12 21.01,-36.03 45.04,-66.06 78.06,-87.08 33.03,-21.01 66.06,-39.04 108.1,-48.04 42.04,-12 81.08,-21.01 123.11,-27.02 42.04,-6 81.08,-12 123.11,-15.01 39.04,-3.01 75.07,-9.01 105.09,-18.02 30.02,-9.01 54.05,-18.03 72.06,-33.03 18.03,-15.01 27.03,-36.03 24.03,-66.06 0,-30.03 -6,-54.05 -15.01,-69.06 -9.02,-18.02 -24.03,-30.02 -39.04,-39.04 -15.02,-9.01 -36.04,-15.01 -57.05,-18.02 -21.02,-3 -45.05,-6 -69.06,-6 -54.05,0 -96.09,12.01 -126.12,36.03 -30.03,24.03 -48.04,63.06 -54.05,114.1l-276.24 0.01 0 0zm633.56 201.18c-12,9.01 -27.02,18.02 -42.03,24.03 -15.02,6 -36.04,9.01 -57.05,15.01 -21.02,3.01 -42.04,6 -63.06,9.01 -21.01,3.01 -45.04,6.01 -66.06,9.01 -21.01,3.01 -42.03,9.01 -60.05,15.02 -18.03,6 -36.04,15.01 -51.05,27.02 -15.02,12.01 -27.02,24.02 -36.03,42.03 -9.01,18.01 -12.01,39.04 -12.01,63.06 0,24.02 3.01,45.04 12.01,63.05 9.01,18.02 21.01,30.03 36.03,39.04 15.01,9.01 33.02,18.02 54.05,21.02 21.02,3.01 42.04,6 63.06,6 54.05,0 96.09,-9.01 126.11,-27.02 30.03,-18.02 51.05,-39.04 66.07,-66.06 15.01,-24.03 24.02,-51.05 27.02,-75.07 2.99,-24.03 6,-45.05 6,-63.06l-3.01 -102.09 0 0z"/>
      <path class="fil1" d="M3777.39 1501.37l0 186.17 2.99 0c12.01,-30.03 30.03,-60.06 51.05,-84.07 21.02,-27.02 48.04,-48.04 75.07,-66.06 27.02,-18.03 57.05,-33.03 90.09,-42.04 33.03,-9.01 66.06,-15.01 102.09,-15.01 18.02,0 39.04,3 60.06,9.01l0 255.23c-12.01,-3.01 -27.02,-6 -45.05,-6 -18.02,-3.01 -36.03,-3.01 -51.04,-3.01 -51.05,0 -93.09,9.01 -126.12,24.02 -36.03,18.03 -63.05,39.04 -84.07,69.06 -21.02,30.03 -36.03,63.05 -45.05,102.09 -9.01,39.04 -12,81.08 -12,126.12l0 447.4 -273.26 -0.01 0 -1002.9 255.24 0z"/>
      <path class="fil1" d="M4296.85 1807.65c3.01,-63.05 21.02,-117.1 48.04,-159.14 27.02,-42.04 63.05,-75.07 108.1,-102.09 45.04,-27.02 93.08,-45.05 147.13,-54.06 54.06,-12 111.11,-15.01 165.15,-15.01 51.04,0 102.09,3.01 153.14,9.01 51.04,6 99.08,21.02 141.12,42.04 42.03,21.01 78.07,48.03 105.09,84.07 27.02,36.03 42.03,84.07 42.03,144.13l0 519.46c0,45.04 3.01,87.08 9.01,129.11 6.01,42.04 15.02,72.07 27.03,93.09l-279.25 0.01c-6,-15.02 -9.01,-30.03 -12.01,-48.04 -3.01,-15.02 -6,-33.03 -6,-48.04 -45.04,45.04 -96.09,78.07 -153.14,93.08 -60.06,18.02 -120.1,27.02 -180.16,27.02 -48.04,0 -93.08,-6 -132.12,-18.02 -42.04,-12.01 -78.07,-30.03 -108.1,-54.05 -30.03,-24.03 -54.05,-54.06 -72.06,-93.09 -18.03,-36.03 -27.02,-81.07 -27.02,-132.12 0,-57.05 9.01,-102.09 30.02,-141.12 21.02,-36.03 45.05,-66.06 78.07,-87.08 30.03,-21.01 66.06,-39.04 108.1,-48.04 42.03,-12 81.07,-21.01 123.11,-27.02 42.03,-6 81.07,-12 120.1,-15.01 39.04,-3.01 75.07,-9.01 105.09,-18.02 30.02,-9.01 54.05,-18.03 72.07,-33.03 18.02,-15.01 27.02,-36.03 24.02,-66.06 0,-30.03 -6,-54.05 -15.01,-69.06 -9.01,-18.02 -24.03,-30.02 -39.04,-39.04 -15.02,-9.01 -36.04,-15.01 -57.05,-18.02 -21.02,-3 -45.05,-6 -69.06,-6 -54.05,0 -96.09,12.01 -126.12,36.03 -30.03,24.03 -48.04,63.06 -54.05,114.1l-276.23 0.01 0 0zm633.56 201.18c-12,9.01 -27.02,18.02 -45.04,24.03 -18.02,6 -36.03,9.01 -57.05,15.01 -21.02,3.01 -42.03,6 -63.05,9.01 -21.02,3.01 -45.05,6.01 -66.06,9.01 -21.02,3.01 -42.04,9.01 -60.06,15.02 -18.02,6 -36.03,15.01 -51.05,27.02 -15.01,12.01 -27.02,24.02 -36.03,42.03 -9.01,18.01 -15.01,39.04 -15.01,63.06 0,24.02 3,45.04 15.01,63.05 9.01,18.02 21.02,30.03 36.03,39.04 15.02,9.01 33.03,18.02 54.06,21.02 21.02,3.01 42.03,6 63.05,6 54.05,0 96.09,-9.01 126.12,-27.02 30.03,-18.01 51.05,-39.04 66.06,-66.06 15.01,-24.03 24.02,-51.05 27.02,-75.07 3,-24.03 6,-45.05 6,-63.06l0 -102.09 0 0z"/>
      <path class="fil1" d="M5771.16 2792.53c-54.05,36.03 -126.12,51.04 -219.2,51.04 -27.02,0 -57.05,0 -84.07,-3 -27.02,-3.01 -57.05,-3.01 -84.07,-6.01l0 -225.2c27.02,3.01 51.04,6 78.07,9.01 27.02,3.01 54.05,3.01 81.07,3.01 36.03,-3.01 63.05,-18.02 81.08,-42.04 18.02,-24.02 27.02,-51.04 27.02,-81.07 0,-21.02 -3.01,-42.04 -12.01,-63.06l-351.32 -933.84 291.26 0 225.21 681.61 2.99 0.01 219.2 -681.6 285.25 -0.02 -417.37 1120.01c-30.03,81.07 -72.06,138.12 -123.11,171.15z"/>
      <path class="fil1" d="M6383.71 1807.65c3,-63.05 21.01,-117.1 48.04,-159.14 27.02,-42.04 63.05,-75.07 108.09,-102.09 45.05,-27.02 93.08,-45.05 147.14,-54.06 54.05,-12 111.1,-15.01 165.14,-15.01 51.05,0 102.1,3.01 153.14,9.01 51.05,6 99.09,21.02 141.13,42.04 42.03,21.01 78.06,48.03 105.08,84.07 27.03,36.03 42.04,84.07 42.04,144.13l0 519.46c0,45.04 3.01,87.08 9.01,129.11 6,42.04 15.01,72.07 27.02,93.09l-279.24 0.01c-6.01,-15.02 -9.02,-30.03 -12.01,-48.04 -3.01,-15.02 -6,-33.03 -6,-48.04 -45.05,45.04 -96.09,78.07 -153.14,93.08 -60.06,18.02 -120.11,27.02 -180.16,27.02 -48.04,0 -93.09,-6 -132.13,-18.02 -42.03,-12.01 -78.06,-30.03 -108.09,-54.05 -30.03,-24.03 -54.06,-54.06 -72.07,-93.09 -18.02,-36.03 -27.02,-81.07 -27.02,-132.12 0,-57.05 9.01,-102.09 30.03,-141.12 21.02,-36.03 45.04,-66.06 78.07,-87.08 30.03,-21.01 66.06,-39.04 108.09,-48.04 42.04,-12 81.08,-21.01 123.12,-27.02 42.03,-6 81.07,-12 120.1,-15.01 39.04,-3.01 75.07,-9.01 105.09,-18.02 30.01,-9.01 54.05,-18.03 72.06,-33.03 18.02,-15.01 27.02,-36.03 24.03,-66.06 0,-30.03 -6.01,-54.05 -15.02,-69.06 -9.01,-18.02 -24.02,-30.02 -39.04,-39.04 -15.01,-9.01 -36.03,-15.01 -57.05,-18.02 -21.01,-3 -45.04,-6 -69.05,-6 -54.06,0 -96.09,12.01 -126.12,36.03 -30.03,24.03 -48.04,63.06 -54.06,114.1l-276.22 0.01 0 0zm633.56 201.18c-12.01,9.01 -27.02,18.02 -45.04,24.03 -18.02,6 -36.03,9.01 -57.05,15.01 -21.02,3.01 -42.04,6 -63.06,9.01 -21.01,3.01 -45.04,6.01 -66.06,9.01 -21.01,3.01 -42.03,9.01 -60.05,15.02 -18.03,6 -36.04,15.01 -51.05,27.02 -15.01,12.01 -27.02,24.02 -36.03,42.03 -9.01,18.01 -15.02,39.04 -15.02,63.06 0,24.02 3.01,45.04 15.02,63.05 9.01,18.02 21.02,30.03 36.03,39.04 15.01,9.01 33.02,18.02 54.05,21.02 21.02,3.01 42.04,6 63.06,6 54.05,0 96.09,-9.01 126.12,-27.02 30.02,-18.01 51.04,-39.04 66.06,-66.06 15.01,-24.03 24.02,-51.05 27.02,-75.07 2.99,-24.03 6,-45.05 6,-63.06l0 -102.09 0 0z"/>
      <path class="fil1" d="M7728.9 1501.37l0 138.13 6.01 0c36.03,-57.05 81.07,-99.09 135.11,-126.12 54.05,-27.03 111.11,-39.04 171.15,-39.04 72.07,0 135.12,9.01 180.16,30.03 48.04,21.02 84.08,48.04 111.11,84.07 27.02,36.03 45.04,78.07 57.05,129.12 12.01,51.04 15.01,108.09 15.01,168.15l0 612.55 -273.24 0.01 0 -564.51c0,-81.08 -12.01,-144.13 -39.04,-183.17 -27.02,-39.04 -72.06,-60.06 -138.12,-60.06 -75.08,0 -129.12,21.02 -162.16,66.07 -33.02,45.04 -51.04,117.1 -51.04,219.2l0 522.47 -273.22 0 0 -996.9 261.22 0z"/>
      <path class="fil1" d="M8545.64 1807.65c3,-63.05 21.01,-117.1 48.03,-159.14 27.03,-42.04 63.06,-75.07 108.1,-102.09 45.04,-27.02 93.08,-45.05 147.14,-54.06 54.05,-12 111.1,-15.01 165.14,-15.01 51.05,0 102.1,3.01 153.14,9.01 51.05,6 99.09,21.02 141.12,42.04 42.04,21.01 78.07,48.03 105.09,84.07 27.02,36.03 42.04,84.07 42.04,144.13l0 519.46c0,45.04 3.01,87.08 9.01,129.11 6,42.04 15.01,72.07 27.02,93.09l-279.23 0.01c-6.01,-15.02 -9.02,-30.03 -12.01,-48.04 -3.01,-15.02 -6.01,-33.03 -6.01,-48.04 -45.04,45.04 -96.08,78.07 -153.13,93.08 -60.06,18.02 -120.11,27.02 -180.17,27.02 -48.03,0 -93.08,-6 -132.12,-18.02 -42.03,-12.01 -78.06,-30.03 -108.09,-54.05 -30.03,-24.03 -54.06,-54.06 -72.07,-93.09 -18.02,-36.03 -27.02,-81.07 -27.02,-132.12 0,-57.05 9.01,-102.09 30.03,-141.12 21.02,-36.03 45.04,-66.06 78.07,-87.08 30.03,-21.01 66.06,-39.04 108.09,-48.04 42.04,-12 81.08,-21.01 123.11,-27.02 42.04,-6 81.08,-12 120.11,-15.01 39.04,-3.01 75.07,-9.01 105.09,-18.02 30.01,-9.01 54.05,-18.03 72.06,-33.03 18.02,-15.01 27.02,-36.03 24.03,-66.06 0,-30.03 -6.01,-54.05 -15.02,-69.06 -9.01,-18.02 -24.02,-30.02 -39.04,-39.04 -15.01,-9.01 -36.03,-15.01 -57.05,-18.02 -21.02,-3 -45.04,-6 -69.05,-6 -54.06,0 -96.09,12.01 -126.12,36.03 -30.03,24.03 -48.04,63.06 -54.06,114.1l-276.23 0.01 0 0zm633.56 201.18c-12.01,9.01 -27.02,18.02 -45.04,24.03 -18.03,6 -36.04,9.01 -57.05,15.01 -21.02,3.01 -42.04,6 -63.06,9.01 -21.02,3.01 -45.04,6.01 -66.06,9.01 -21.02,3.01 -42.03,9.01 -60.06,15.02 -18.02,6 -36.03,15.01 -51.04,27.02 -15.02,12.01 -27.02,24.02 -36.03,42.03 -9.01,18.01 -15.02,39.04 -15.02,63.06 0,24.02 3.01,45.04 15.02,63.05 9.01,18.02 21.01,30.03 36.03,39.04 15.01,9.01 33.02,18.02 54.05,21.02 21.02,3.01 42.04,6 63.06,6 54.05,0 96.08,-9.01 126.11,-27.02 30.03,-18.01 51.05,-39.04 66.06,-66.06 15.02,-24.03 24.03,-51.05 27.03,-75.07 2.99,-24.03 6,-45.05 6,-63.06l0 -102.09 0 0z"/>
     </g>
     <g>
      <path class="fil2" d="M1123.01 207.22l0 225.21 0 414.37 414.37 -0.01 228.21 0c114.1,0 207.18,-93.08 207.18,-207.18l0 0c0,-114.1 -93.08,-207.18 -207.18,-207.18l-228.21 -0.01 0 -225.2c0,-114.1 -93.08,-207.18 -207.18,-207.18l0 0c-114.1,-0.01 -207.19,93.08 -207.19,207.18z"/>
     </g>
     <path class="fil2" d="M846.76 1759.6l0 -225.2 0 -414.37 -411.36 0 -228.2 0c-114.1,0 -207.19,93.09 -207.19,207.19l0 0c0,114.1 93.09,207.18 207.19,207.18l228.2 0.01 0 225.2c0,114.1 93.08,207.19 207.18,207.19l0 0c114.11,0 204.18,-93.1 204.18,-207.2z"/>
     <g>
      <polygon class="fil2" points="1306.18,2909.64 1306.18,3227.92 1642.48,3227.92 1642.48,2909.64 1825.64,2909.64 1825.64,3735.37 1642.48,3735.37 1642.48,3381.05 1306.18,3381.05 1306.18,3738.36 1123.01,3738.37 1123.01,2909.64 1306.18,2909.64 "/>
      <path class="fil2" d="M2119.91 3591.24c24.02,24.02 60.05,36.03 108.09,36.03 33.03,0 63.06,-9.01 87.08,-24.02 24.03,-15.02 39.04,-33.03 45.05,-54.06l144.11 0.01c-24.02,72.07 -60.05,123.11 -108.09,153.14 -48.04,30.03 -105.09,45.05 -174.16,45.05 -48.04,0 -90.09,-6.01 -126.12,-24.03 -36.03,-18.02 -69.06,-36.03 -96.09,-63.05 -27.02,-27.02 -48.04,-60.06 -60.06,-99.09 -12.01,-39.03 -21.01,-81.07 -21.01,-126.12 0,-45.04 6,-87.08 21.01,-126.12 15.02,-39.03 36.04,-72.06 63.06,-99.08 27.02,-27.02 60.06,-51.05 96.09,-66.06 36.03,-15.02 78.06,-24.03 123.11,-24.03 51.04,0 96.09,9.01 132.12,30.03 39.04,21.02 69.06,45.04 93.08,78.07 24.03,33.02 42.04,72.06 54.06,114.1 12,42.04 15.01,87.08 12,132.12l-435.38 0c3.01,57.06 15.02,93.09 42.05,117.11zm183.15 -312.27c-21.01,-21.02 -48.03,-33.03 -90.08,-33.03 -27.02,0 -48.04,6.01 -66.06,12.01 -18.02,9.01 -30.03,21.02 -42.04,33.02 -12,12.01 -18.02,27.03 -21.02,42.04 -2.99,15.01 -6,27.02 -6,39.04l267.24 0c-6,-42.05 -21.02,-72.06 -42.04,-93.08z"/>
      <path class="fil2" d="M2600.33 3321c3.01,-39.04 12.01,-69.05 30.03,-96.09 18.02,-24.02 39.04,-45.04 66.06,-60.05 27.02,-15.02 57.05,-27.03 87.08,-33.03 30.03,-6 66.06,-9.01 99.09,-9.01 30.02,0 60.05,3.01 93.08,6 33.02,3 60.06,12.01 84.07,24.03 24.01,12.02 45.04,30.03 63.05,51.05 15.02,21.01 24.03,51.04 24.03,87.07l0 312.29c0,27.02 3.01,54.05 3.01,78.06 3,24.03 9.01,42.04 15.01,57.05l-168.15 0c-3.01,-9.01 -6.01,-18.02 -6.01,-27.02 0,-9 -3.01,-18.02 -3.01,-30.03 -27.02,27.03 -57.04,45.05 -93.08,57.05 -36.03,12.01 -72.06,15.02 -108.09,15.02 -27.02,0 -54.06,-3.01 -81.08,-12.01 -24.02,-6 -45.04,-18.02 -66.06,-33.02 -18.02,-15.02 -33.02,-33.03 -42.04,-57.05 -12,-21.02 -15.01,-48.04 -15.01,-81.08 0,-33.02 6,-63.05 18.02,-84.07 12.01,-21.02 27.02,-39.04 45.05,-54.05 18.02,-12.01 42.03,-24.03 66.06,-30.03 24.02,-6.01 48.04,-12.01 72.06,-15.02 24.03,-3 48.04,-6 72.06,-9.01 24.03,-3 45.05,-6 63.06,-9.01 18.02,-6 33.02,-12 45.04,-21.02 12.02,-9.01 15.02,-21.01 15.02,-39.04 0,-18.02 -3.01,-33.02 -9.02,-42.03 -6,-9.01 -12,-18.02 -24.02,-24.03 -9.01,-6 -21.02,-9.01 -33.03,-12 -12,-3.01 -27.02,-3.01 -42.03,-3.01 -33.03,0 -57.05,6 -78.07,21.02 -18.02,15.01 -30.03,36.03 -33.02,69.05l-159.16 3.02 0 0zm381.34 123.11c-6,6.01 -15.01,12.01 -27.02,15.02 -12.01,3.01 -21.02,6 -33.02,9.01 -12.01,3.01 -24.03,3.01 -36.04,6 -12,3.01 -27.02,3.01 -39.04,6.01 -12,3 -24.02,6 -36.03,9.01 -12.01,3 -24.02,9.01 -30.03,15.01 -9.01,6 -15.01,15.02 -21.01,24.03 -6.01,9.01 -9.02,24.02 -9.02,39.04 0,15.01 3.01,27.02 9.02,36.03 6,9.01 12,18.02 21.01,24.02 9.01,6.01 21.02,9.01 33.03,12.01 12,3.01 24.02,3.01 39.04,3.01 33.02,0 57.05,-6.01 75.07,-15.02 18.02,-9.01 30.03,-24.02 39.04,-39.04 9.01,-15.01 15.01,-30.03 15.01,-45.04 3.01,-15.01 3.01,-27.02 3.01,-36.03l-3.02 -63.07 0 0z"/>
      <polygon class="fil2" points="3420.06,2909.64 3420.06,3735.37 3254.91,3735.37 3254.91,2909.64 "/>
      <path class="fil2" d="M3891.49 3137.83l0 111.11 -120.12 0 0 297.27c0,27.02 3.01,45.04 15.02,57.05 9.01,9.01 27.02,15.01 57.05,15.01 9.01,0 18.02,0 27.02,0 9.01,0 18.02,-3.01 24.02,-3.01l0 126.12c-15.01,3.01 -30.03,3.01 -45.04,3.01 -18.02,0 -33.03,0 -51.05,0 -27.02,0 -48.04,-3.01 -72.06,-6 -24.03,-3.01 -42.04,-9.02 -60.06,-21.02 -18.02,-12.01 -30.03,-24.03 -42.03,-42.04 -9.02,-18.02 -15.02,-42.03 -15.02,-72.06l0 -351.31 -99.07 -0.03 0 -111.1 99.08 0.01 0 -180.16 165.15 0 0 180.16 117.11 -3.01 0 0z"/>
      <path class="fil2" d="M4143.71 2909.64l0 309.27 3 0c21.01,-36.03 48.04,-60.06 81.07,-75.07 33.04,-15.02 63.06,-24.03 96.09,-24.03 45.04,0 81.08,6.01 108.1,18.02 27.02,12.01 51.04,27.03 66.06,51.05 15.01,21.02 27.02,48.04 33.02,78.07 6.01,30.03 9.01,63.05 9.01,102.09l0 366.33 -165.14 0 0 -336.3c0,-48.04 -9.01,-87.08 -24.03,-111.1 -15.01,-24.03 -42.03,-36.04 -81.07,-36.04 -45.05,0 -78.07,12.01 -96.09,39.04 -21.02,27.03 -30.03,69.06 -30.03,132.13l0 312.28 -165.14 -0.01 0 -825.73 165.15 0 0 0z"/>
     </g>
    </g>
   </g>
  </g>
 </g>
</svg>
